<svg width="120" height="120" viewBox="0 0 120 120" fill="none" xmlns="http://www.w3.org/2000/svg">
<path d="M0 45C0 20.1472 20.1472 0 45 0H120V75C120 99.8528 99.8528 120 75 120H0V45Z" fill="black"/>
<path d="M49.8334 56.472C47.6841 56.576 45.2921 56.628 42.6574 56.628H42.0334C37.1454 65.5027 34.2334 71.5173 33.2974 74.672C33.1588 75.088 33.0894 75.4693 33.0894 75.816C33.0894 76.856 34.0081 77.376 35.8454 77.376C36.6081 77.376 37.4401 77.2373 38.3414 76.96C39.2428 76.648 40.3348 76.128 41.6174 75.4C42.9348 74.6373 44.4081 73.4413 46.0374 71.812C47.6668 70.1827 49.3308 68.2067 51.0294 65.884C51.2374 65.5027 51.5494 65.312 51.9654 65.312C52.2428 65.312 52.3814 65.4507 52.3814 65.728C52.3814 65.7973 52.3468 65.936 52.2774 66.144C50.6134 70.408 48.4988 74.2213 45.9334 77.584C45.7254 78.0693 45.2054 78.3813 44.3734 78.52C41.5308 78.6587 38.5321 78.728 35.3774 78.728C31.7721 78.728 28.8601 78.6067 26.6414 78.364C26.2254 78.3293 26.0174 78.0867 26.0174 77.636C26.0174 77.3587 26.0868 77.0813 26.2254 76.804C28.2014 72.3667 31.9281 65.624 37.4054 56.576L35.0654 56.524C34.6148 56.524 34.3894 56.3853 34.3894 56.108C34.3894 55.8307 34.5281 55.588 34.8054 55.38C35.1174 55.1373 35.4294 55.016 35.7414 55.016H38.3934L44.6854 44.928C45.2054 43.992 45.4654 43.1427 45.4654 42.38C45.4654 41.86 45.3441 41.4093 45.1014 41.028C44.8934 40.6467 44.6681 40.3867 44.4254 40.248L44.0614 40.04C43.7494 39.8667 43.5934 39.676 43.5934 39.468C43.5934 39.3293 43.6454 39.208 43.7494 39.104C43.8881 39 44.0268 38.9307 44.1654 38.896L44.3734 38.844C47.9441 38.636 51.6534 38.532 55.5014 38.532C58.6908 38.532 61.2561 38.6187 63.1974 38.792C63.7174 38.792 63.9774 39.0173 63.9774 39.468C63.9774 39.572 63.9254 39.7627 63.8214 40.04C62.6774 42.9173 61.5161 45.1707 60.3374 46.8C60.1641 46.9733 59.9734 47.06 59.7654 47.06C59.4534 47.06 59.2974 46.8347 59.2974 46.384C59.4708 45.7253 59.5574 45.0147 59.5574 44.252C59.5574 41.4093 58.1361 39.988 55.2934 39.988H55.0854C53.3174 39.988 52.0521 40.4733 51.2894 41.444C49.5214 43.628 47.1641 47.3893 44.2174 52.728C43.8708 53.3173 43.4374 54.0627 42.9174 54.964H50.7174C51.0641 54.964 51.2374 55.068 51.2374 55.276C51.2374 55.484 51.0814 55.7267 50.7694 56.004C50.4921 56.2813 50.1801 56.4373 49.8334 56.472ZM96.4417 39.416C94.639 42.016 92.6283 45.3093 90.4097 49.296C88.191 53.2827 86.423 56.628 85.1057 59.332L83.1297 63.388C79.559 70.8067 77.7737 76.128 77.7737 79.352C77.7737 79.4213 77.7737 79.56 77.7737 79.768C77.8083 79.976 77.8257 80.1493 77.8257 80.288C77.8257 80.8427 77.6697 81.12 77.3577 81.12C76.7683 81.12 76.127 80.6 75.4337 79.56C74.7403 78.5547 74.3937 77.2027 74.3937 75.504C74.3937 73.944 74.7577 72.0373 75.4857 69.784C76.2483 67.5307 77.3577 64.9653 78.8137 62.088C80.2697 59.176 81.483 56.836 82.4537 55.068C83.459 53.3 84.7763 50.9947 86.4057 48.152C86.5097 47.944 86.5617 47.788 86.5617 47.684C86.4923 47.5107 86.4057 47.424 86.3017 47.424C86.0937 47.424 85.8857 47.5107 85.6777 47.684C83.6323 49.348 80.9457 52.1733 77.6177 56.16C74.2897 60.1467 71.4817 63.7173 69.1937 66.872L65.7097 71.604C65.155 72.436 64.7043 72.852 64.3577 72.852C64.2537 72.852 64.167 72.8173 64.0977 72.748C64.0283 72.6787 63.9763 72.592 63.9417 72.488C63.907 72.3493 63.8723 72.228 63.8377 72.124C63.8377 72.02 63.8377 71.9333 63.8377 71.864V71.76C64.0803 69.6107 64.427 66.612 64.8777 62.764C65.363 58.916 65.7617 55.6747 66.0737 53.04C66.3857 50.4053 66.5417 49.0533 66.5417 48.984C66.5417 48.6373 66.4723 48.464 66.3337 48.464C66.2643 48.464 66.1603 48.516 66.0217 48.62C65.9177 48.724 65.831 48.828 65.7617 48.932L65.6577 49.088C64.167 51.3067 62.5723 54.184 60.8737 57.72C59.175 61.2213 57.8057 64.324 56.7657 67.028C56.003 68.9693 55.223 70.7547 54.4257 72.384C53.6283 73.9787 52.9177 75.2267 52.2937 76.128C51.7043 76.9947 51.167 77.7227 50.6817 78.312C50.1617 78.936 49.763 79.352 49.4857 79.56L49.0697 79.872C48.6883 80.184 48.3937 80.34 48.1857 80.34C47.9777 80.34 47.8737 80.1667 47.8737 79.82L47.9257 79.352C48.2723 77.5147 49.7803 74.0133 52.4497 68.848C55.1537 63.6827 57.771 58.968 60.3017 54.704L64.0977 48.36L66.9577 43.42C68.379 39.364 69.471 37.336 70.2337 37.336C70.7537 37.336 71.0137 38.22 71.0137 39.988C69.939 52.884 69.4017 60.2507 69.4017 62.088C69.4017 62.608 69.5057 62.868 69.7137 62.868C69.9217 62.868 70.1643 62.6773 70.4417 62.296C70.8923 61.7067 71.5163 60.9093 72.3137 59.904C73.111 58.8987 74.6363 57.096 76.8897 54.496C79.143 51.896 81.2577 49.556 83.2337 47.476C85.2443 45.396 87.4283 43.4027 89.7857 41.496C92.143 39.5893 94.0843 38.428 95.6097 38.012C95.9563 37.9427 96.1817 37.908 96.2857 37.908C96.7017 37.908 96.9097 38.064 96.9097 38.376C96.9097 38.6533 96.7537 39 96.4417 39.416Z" fill="white"/>
</svg>
